HIERARCHY
ROOT SpineBase
{
  OFFSET 0.000000 0.000000 0.000000
  CHANNELS 6 Xposition Yposition Zposition Zrotation Xrotation Yrotation
  JOINT SpineMid
  {
    OFFSET -0.000000 26.932512 -0.000000
    CHANNELS 3 Zrotation Xrotation Yrotation
    JOINT SpineShoulder
    {
      OFFSET -0.064310 19.808781 -0.523277
      CHANNELS 3 Zrotation Xrotation Yrotation
      JOINT Neck
      {
        OFFSET -0.044482 6.477099 -0.440594
        CHANNELS 3 Zrotation Xrotation Yrotation
        JOINT Head
        {
          OFFSET -1.651136 9.635421 -2.771981
          CHANNELS 3 Zrotation Xrotation Yrotation
          End Site
          {
            OFFSET 0 0 0
          }
        }
      }
      JOINT ShoulderLeft
      {
        OFFSET -15.527251 -3.087803 4.918731
        CHANNELS 3 Zrotation Xrotation Yrotation
        JOINT ElbowLeft
        {
          OFFSET -8.876848 -26.200749 0.543200
          CHANNELS 3 Zrotation Xrotation Yrotation
          JOINT WristLeft
          {
            OFFSET -6.522955 -10.928233 -10.788665
            CHANNELS 3 Zrotation Xrotation Yrotation
            JOINT HandLeft
            {
              OFFSET -1.592760 -3.803772 -2.605416
              CHANNELS 3 Zrotation Xrotation Yrotation
              JOINT HandTipLeft
              {
                OFFSET 0.663151 -4.501944 -2.616013
                CHANNELS 3 Zrotation Xrotation Yrotation
                End Site
                {
                  OFFSET 0 0 0
                }
              }
              JOINT ThumbLeft
              {
                OFFSET 3.189343 -2.615895 -1.338175
                CHANNELS 3 Zrotation Xrotation Yrotation
                End Site
                {
                  OFFSET 0 0 0
                }
              }
            }
          }
        }
      }
      JOINT ShoulderRight
      {
        OFFSET 16.749858 -1.844920 -5.352586
        CHANNELS 3 Zrotation Xrotation Yrotation
        JOINT ElbowRight
        {
          OFFSET 9.937057 -19.786584 -6.346241
          CHANNELS 3 Zrotation Xrotation Yrotation
          JOINT WristRight
          {
            OFFSET 0.481520 -18.904013 -11.341726
            CHANNELS 3 Zrotation Xrotation Yrotation
            JOINT HandRight
            {
              OFFSET -1.906438 -5.938475 0.882428
              CHANNELS 3 Zrotation Xrotation Yrotation
              JOINT HandTipRight
              {
                OFFSET -0.179310 -4.763700 -0.533499
                CHANNELS 3 Zrotation Xrotation Yrotation
                End Site
                {
                  OFFSET 0 0 0
                }
              }
              JOINT ThumbRight
              {
                OFFSET 1.911827 -1.489853 -2.685996
                CHANNELS 3 Zrotation Xrotation Yrotation
                End Site
                {
                  OFFSET 0 0 0
                }
              }
            }
          }
        }
      }
    }
  }
  JOINT HipLeft
  {
    OFFSET -6.417128 -0.346992 -1.669151
    CHANNELS 3 Zrotation Xrotation Yrotation
    JOINT KneeLeft
    {
      OFFSET -15.905217 -9.695885 -25.125174
      CHANNELS 3 Zrotation Xrotation Yrotation
      JOINT AnkleLeft
      {
        OFFSET 1.671913 -36.986059 10.400443
        CHANNELS 3 Zrotation Xrotation Yrotation
        JOINT FootLeft
        {
          OFFSET -1.537764 -9.138982 -9.387104
          CHANNELS 3 Zrotation Xrotation Yrotation
          End Site
          {
            OFFSET 0 0 0
          }
        }
      }
    }
  }
  JOINT HipRight
  {
    OFFSET 6.092240 -0.498092 -5.110199
    CHANNELS 3 Zrotation Xrotation Yrotation
    JOINT KneeRight
    {
      OFFSET 4.488403 -7.886388 -31.500469
      CHANNELS 3 Zrotation Xrotation Yrotation
      JOINT AnkleRight
      {
        OFFSET 7.183563 -34.319634 10.184065
        CHANNELS 3 Zrotation Xrotation Yrotation
        JOINT FootRight
        {
          OFFSET -1.881014 -9.177645 -9.367149
          CHANNELS 3 Zrotation Xrotation Yrotation
          End Site
          {
            OFFSET 0 0 0
          }
        }
      }
    }
  }
}
MOTION
Frames: 14
Frame Time: 0.033333
22.718141 56.167918 396.808962 0.000000 -0.000000 15.380388 0.000000 0.000000 -15.380388 -0.000000 0.000000 0.000000 -0.000000 0.000000 0.000000 0.000000 0.000000 0.000000 -0.000000 0.000000 0.000000 -0.000000 0.000000 0.000000 -0.000000 0.000000 0.000000 -0.000000 0.000000 0.000000 0.000000 0.000000 0.000000 0.000000 0.000000 0.000000 -0.000000 0.000000 0.000000 -0.000000 0.000000 0.000000 -0.000000 0.000000 0.000000 -0.000000 0.000000 0.000000 0.000000 0.000000 0.000000 0.000000 0.000000 0.000000 0.000000 0.000000 -15.380388 -0.000000 0.000000 0.000000 -0.000000 0.000000 0.000000 0.000000 0.000000 0.000000 0.000000 0.000000 -15.380388 -0.000000 0.000000 0.000000 -0.000000 0.000000 0.000000 0.000000 0.000000 0.000000
22.716719 56.178516 396.819434 0.004072 0.081941 15.296852 -0.025545 -0.077964 -15.296873 -0.000000 0.000000 0.000000 -0.000000 0.000000 0.000000 0.000000 0.000000 0.000000 -0.000000 0.000000 0.000000 1.417094 -1.603520 -0.431185 9.483886 -9.237286 -1.914353 -8.324882 5.168838 1.297753 0.000000 0.000000 0.000000 0.000000 0.000000 0.000000 -0.000000 0.000000 0.000000 -0.375983 -1.349546 0.188116 1.160980 3.398477 -0.776401 -2.292094 -0.227543 0.603551 0.000000 0.000000 0.000000 0.000000 0.000000 0.000000 -0.025545 -0.077964 -15.296873 -0.000000 0.000000 0.000000 -0.000000 0.000000 0.000000 0.000000 0.000000 0.000000 -0.025545 -0.077964 -15.296873 -0.000000 0.000000 0.000000 -0.000000 0.000000 0.000000 0.000000 0.000000 0.000000
22.713958 56.185655 396.830296 0.007018 0.148586 15.235112 -0.045817 -0.141520 -15.235178 -0.000000 0.000000 0.000000 -0.632088 -0.648363 -0.296324 0.000000 0.000000 0.000000 -0.000000 0.000000 0.000000 2.277620 -2.567084 -0.688662 19.743803 -19.607985 -2.149775 -18.114876 10.992288 4.765159 0.000000 0.000000 0.000000 0.000000 0.000000 0.000000 -0.000000 0.000000 0.000000 -0.645019 -2.369760 0.317262 2.046034 5.905326 -1.389774 -3.879952 -0.730016 0.982915 0.000000 0.000000 0.000000 0.000000 0.000000 0.000000 -0.045817 -0.141520 -15.235178 -0.000000 0.000000 0.000000 -0.000000 0.000000 0.000000 0.000000 0.000000 0.000000 -0.045817 -0.141520 -15.235178 -0.000000 0.000000 0.000000 -0.000000 0.000000 0.000000 0.000000 0.000000 0.000000
22.709859 56.189336 396.841549 0.008840 0.199973 15.195261 -0.060946 -0.190665 -15.195378 -0.000000 0.000000 0.000000 -0.760917 -0.663323 -0.336804 0.000000 0.000000 0.000000 -0.000000 0.000000 0.000000 2.813489 -3.145812 -0.858509 27.855959 -27.422773 -0.807162 -26.070152 14.847683 8.616248 0.000000 0.000000 0.000000 0.000000 0.000000 0.000000 -0.000000 0.000000 0.000000 -0.809246 -3.058492 0.392351 2.608039 7.474954 -1.780067 -4.957045 -1.132981 1.189879 0.000000 0.000000 0.000000 0.000000 0.000000 0.000000 -0.060946 -0.190665 -15.195378 -0.000000 0.000000 0.000000 -0.000000 0.000000 0.000000 0.000000 0.000000 0.000000 -0.060946 -0.190665 -15.195378 -0.000000 0.000000 0.000000 -0.000000 0.000000 0.000000 0.000000 0.000000 0.000000
22.704422 56.189559 396.853192 0.009538 0.236123 15.177372 -0.071025 -0.225390 -15.177531 -0.000000 0.000000 0.000000 -0.765210 -0.471143 -0.304014 0.000000 0.000000 0.000000 -0.000000 0.000000 0.000000 3.130194 -3.455868 -0.978197 31.804331 -31.105487 0.572239 -30.148945 16.179542 10.940451 0.000000 0.000000 0.000000 0.000000 0.000000 0.000000 -0.000000 0.000000 0.000000 -0.870074 -3.415071 0.416601 2.816991 8.090299 -1.908434 -5.623939 -1.271760 1.260967 0.000000 0.000000 0.000000 0.000000 0.000000 0.000000 -0.071025 -0.225390 -15.177531 -0.000000 0.000000 0.000000 -0.000000 0.000000 0.000000 0.000000 0.000000 0.000000 -0.071025 -0.225390 -15.177531 -0.000000 0.000000 0.000000 -0.000000 0.000000 0.000000 0.000000 0.000000 0.000000
22.697646 56.186323 396.865226 0.009111 0.257034 15.181491 -0.076105 -0.245678 -15.181675 -0.000000 0.000000 0.000000 -0.000000 0.000000 0.000000 0.000000 0.000000 0.000000 -0.000000 0.000000 0.000000 3.275190 -3.546442 -1.066052 30.847824 -30.714425 0.906009 -30.035497 15.408790 11.036578 0.000000 0.000000 0.000000 0.000000 0.000000 0.000000 -0.000000 0.000000 0.000000 -0.828159 -3.439503 0.391495 2.666204 7.758622 -1.763060 -5.942497 -1.101155 1.219435 0.000000 0.000000 0.000000 0.000000 0.000000 0.000000 -0.076105 -0.245678 -15.181675 -0.000000 0.000000 0.000000 -0.000000 0.000000 0.000000 0.000000 0.000000 0.000000 -0.076105 -0.245678 -15.181675 -0.000000 0.000000 0.000000 -0.000000 0.000000 0.000000 0.000000 0.000000 0.000000
22.687005 56.188179 396.879056 -0.017400 0.264150 15.216969 -0.052543 -0.259455 -15.217048 -0.000000 0.000000 0.000000 -0.000000 0.000000 0.000000 0.000000 0.000000 0.000000 -0.000000 0.000000 0.000000 3.110987 -3.035385 -1.229388 25.292358 -27.741705 1.819728 -25.438090 13.079331 7.999628 0.000000 0.000000 0.000000 0.000000 0.000000 0.000000 -0.000000 0.000000 0.000000 -0.440307 -2.496196 0.193532 1.375720 4.637595 -0.826711 -5.106730 -0.368156 0.846677 0.000000 0.000000 0.000000 0.000000 0.000000 0.000000 -0.052543 -0.259455 -15.217048 -0.000000 0.000000 0.000000 -0.000000 0.000000 0.000000 0.000000 0.000000 0.000000 -0.052543 -0.259455 -15.217048 -0.000000 0.000000 0.000000 -0.000000 0.000000 0.000000 0.000000 0.000000 0.000000
22.676875 56.181969 396.892480 -0.017587 0.268499 15.244539 -0.053631 -0.263676 -15.244622 -0.000000 0.000000 0.000000 0.376992 1.662965 0.389377 0.000000 0.000000 0.000000 -0.000000 0.000000 0.000000 2.076765 -1.526209 -1.139033 12.903638 -17.437484 1.365950 -17.118166 5.384234 4.516720 0.000000 0.000000 0.000000 0.000000 0.000000 0.000000 -0.000000 0.000000 0.000000 -0.088750 -1.892197 0.003615 0.088918 1.892189 -0.006549 -4.738068 0.517944 0.531762 0.000000 0.000000 0.000000 0.000000 0.000000 0.000000 -0.053631 -0.263676 -15.244622 -0.000000 0.000000 0.000000 -0.000000 0.000000 0.000000 0.000000 0.000000 0.000000 -0.053631 -0.263676 -15.244622 -0.000000 0.000000 0.000000 -0.000000 0.000000 0.000000 0.000000 0.000000 0.000000
22.666430 56.165590 396.906335 0.001980 0.250958 15.336854 -0.068287 -0.241497 -15.337002 -0.000000 0.000000 0.000000 0.593472 2.656714 0.615869 0.000000 0.000000 0.000000 -0.000000 0.000000 0.000000 2.894987 -2.698245 -1.226546 5.751688 -7.843551 0.325646 -13.942569 -0.225767 4.535263 0.000000 0.000000 0.000000 0.000000 0.000000 0.000000 -0.000000 0.000000 0.000000 0.207349 -0.820978 -0.144443 -0.714549 -1.044335 0.666947 -3.064769 1.797738 -0.009354 0.000000 0.000000 0.000000 0.000000 0.000000 0.000000 -0.068287 -0.241497 -15.337002 -0.036381 -0.852071 -0.048917 0.035657 0.852102 0.048381 0.000000 0.000000 0.000000 -0.068287 -0.241497 -15.337002 -0.000000 0.000000 0.000000 -0.000000 0.000000 0.000000 0.000000 0.000000 0.000000
22.658193 56.128898 396.919641 0.035482 0.179250 15.430132 -0.081895 -0.163348 -15.430304 -0.000000 0.000000 0.000000 0.739800 4.079728 0.894039 0.000000 0.000000 0.000000 -0.199465 0.947668 -0.323428 1.652117 -2.298114 -0.252435 7.045165 -7.899985 -0.855252 -15.500651 1.404022 6.514865 0.000000 0.000000 0.000000 0.000000 0.000000 0.000000 -0.000000 0.000000 0.000000 0.144253 -1.094518 -0.113697 -0.216155 0.090790 0.428162 -8.163907 0.475185 0.738238 0.000000 0.000000 0.000000 0.000000 0.000000 0.000000 -0.081895 -0.163348 -15.430304 0.129776 -0.922441 -0.004152 -0.129860 0.922430 0.006242 0.000000 0.000000 0.000000 -0.081895 -0.163348 -15.430304 -0.000000 0.000000 0.000000 -0.000000 0.000000 0.000000 0.000000 0.000000 0.000000
22.642993 56.084023 396.942698 0.100029 0.109394 15.590008 -0.125749 -0.078486 -15.590190 -0.000000 0.000000 0.000000 0.573948 5.460720 1.088174 0.000000 0.000000 0.000000 -0.181029 1.193944 -0.406260 -1.015044 0.490958 0.566789 13.576272 -15.462408 -1.133250 -19.145661 6.369687 8.461142 0.000000 0.000000 0.000000 0.000000 0.000000 0.000000 -0.000000 0.000000 0.000000 -0.198040 -1.726168 0.072520 0.200315 1.725906 -0.078521 -5.788869 0.554675 0.654422 0.000000 0.000000 0.000000 0.000000 0.000000 0.000000 -0.125749 -0.078486 -15.590190 0.200005 -0.995050 0.012964 -0.199810 0.995089 -0.009492 0.000000 0.000000 0.000000 -0.125749 -0.078486 -15.590190 -0.000000 0.000000 0.000000 -0.000000 0.000000 0.000000 0.000000 0.000000 0.000000
22.631548 56.031734 396.963381 0.178152 -0.001214 15.731195 -0.171150 0.049470 -15.731119 -0.000000 0.000000 0.000000 0.346711 6.767224 1.260979 0.000000 0.000000 0.000000 -0.120896 1.496026 -0.507765 -2.119542 0.888425 1.245286 19.373551 -23.197251 0.140974 -23.157417 15.358391 10.291421 0.000000 0.000000 0.000000 0.000000 0.000000 0.000000 -0.000000 0.000000 0.000000 -0.295635 -2.093257 0.119968 0.300217 2.092605 -0.130852 -7.037484 1.248465 0.816017 0.000000 0.000000 0.000000 0.000000 0.000000 0.000000 -0.256502 0.770028 -16.104029 0.630865 -1.621118 0.435188 -0.341758 0.955107 -0.050202 0.000000 0.000000 0.000000 -0.171150 0.049470 -15.731119 -0.000000 0.000000 0.000000 -0.000000 0.000000 0.000000 0.000000 0.000000 0.000000
22.624853 55.981166 396.980863 0.240712 -0.126730 15.862709 -0.196907 0.187698 -15.862120 0.234761 -0.855334 0.011841 0.062807 8.760332 1.436578 0.000000 0.000000 0.000000 -0.306328 2.637304 -0.611469 -2.827050 1.433243 1.471744 28.989564 -32.710112 2.983333 -30.997845 25.268820 14.578935 0.000000 0.000000 0.000000 0.000000 0.000000 0.000000 0.527976 1.450076 0.030334 -0.581189 -1.798311 -0.195412 -1.444476 -1.098659 0.690984 -6.435307 3.253753 0.630041 0.000000 0.000000 0.000000 0.000000 0.000000 0.000000 -0.313946 1.089860 -16.290908 0.793145 -1.612140 0.524911 -0.420547 0.782880 -0.080162 0.000000 0.000000 0.000000 -0.196907 0.187698 -15.862120 -0.000000 0.000000 0.000000 -0.000000 0.000000 0.000000 0.000000 0.000000 0.000000
22.625056 55.929644 396.994289 0.295218 -0.275296 15.959519 -0.124035 -0.525008 -15.952233 -0.020229 -0.321668 0.007774 -0.047259 10.030589 1.600432 0.000000 0.000000 0.000000 -0.300636 3.178635 -0.702023 -1.021471 -0.459041 0.731326 33.408938 -36.564887 5.830449 -32.551496 32.628130 13.429838 0.000000 0.000000 0.000000 0.000000 0.000000 0.000000 0.520114 1.678580 -0.020013 -0.637179 -1.831060 -0.153278 -1.847372 -0.428788 0.458008 -5.880889 3.124100 0.785259 0.000000 0.000000 0.000000 0.000000 0.000000 0.000000 -0.357068 1.392591 -16.410286 0.438616 -0.962009 0.458046 -0.000000 0.000000 0.000000 0.000000 0.000000 0.000000 -0.208149 0.345855 -15.958182 -0.000000 0.000000 0.000000 -0.000000 0.000000 0.000000 0.000000 0.000000 0.000000
